<?xml version="1.0" encoding="utf-8"?>
<!-- Generator: Adobe Illustrator 25.4.1, SVG Export Plug-In . SVG Version: 6.00 Build 0)  -->
<svg version="1.1" id="Layer_1" xmlns="http://www.w3.org/2000/svg" xmlns:xlink="http://www.w3.org/1999/xlink" x="0px" y="0px"
	 viewBox="0 0 351.3 351.2" style="enable-background:new 0 0 351.3 351.2;" xml:space="preserve">
<style type="text/css">
	.st0{fill:#010101;}
</style>
<path class="st0" d="M175.5,315.1c-76.7,0-139.6-62.5-139.6-138.7c0-78.2,62.2-141.2,139.6-141.2c77.8,0,140.4,62.6,140.3,140.4
	C315.5,253.2,253.2,315.2,175.5,315.1z M111.2,170.5c0,26.3,0,52.6,0,78.9c0,5.1,1,8.8,7.3,8.8c29.6-0.1,59.1,0.4,88.7-0.3
	c22.9-0.6,40.3-19.9,40-42.4c-0.3-22.8-18.7-41.4-41.8-41.8c-22.5-0.3-45.1,0-67.6-0.2c-6.5-0.1-8.9,2.5-8.7,9
	c0.3,16.3,0.3,32.6,0,48.8c-0.1,6.9,2.5,9.4,9.3,9.3c21.5-0.2,43.1-0.1,64.6-0.2c3,0,6.1-0.3,8.9-1.1c10.1-3.1,16-10.2,17.3-20.6
	c1.2-9.7-2.6-17.7-10.8-23.2c-3.8-2.6-8.4-5.2-11.9-0.2c-3.6,5.1,0.2,7.9,4.6,10.5c5.2,3,6.7,8,5.2,13.7c-1.5,5.5-5.5,8.3-11.1,8.3
	c-18.8,0.1-37.6,0-56.4,0.1c-4.7,0-7-2-6.9-6.7c0.1-9.5,0-19,0-28.6c0-4.4,2.3-6.4,6.6-6.4c19.8,0,39.6-0.5,59.4,0.4
	c16,0.7,27.3,14.3,26.8,30.5c-0.4,15.8-12.9,28.4-29,28.5c-24.5,0.2-49.1,0-73.7,0.2c-6,0-7.9-2.4-7.9-8.1c0.1-44.3,0.1-88.7,0-133
	c0-6.1,2-8.7,8.3-8.6c10.5,0.3,21,0.1,31.6,0.1c14.3,0,28.6-0.3,42.8,0.2c16,0.6,28,13.6,28,29.6c0,15.5-12.1,29-27.4,29.4
	c-19.5,0.5-39.1,0.1-58.6,0.2c-4.7,0-7-1.9-6.9-6.7c0.1-9.3,0.1-18.5,0-27.8c-0.1-5.1,2.4-7.3,7.3-7.3c18.5,0,37.1-0.1,55.6,0.1
	c5.7,0.1,10.3,2.8,11.6,8.8c1.4,6-0.5,11.1-6.1,13.9c-4.2,2.1-6.8,5-4.2,9.4c2.8,5,7.1,3.4,11.1,1.1c9.4-5.3,14.1-16.4,11.6-27
	c-2.5-10.5-11.6-18.6-22.6-18.8c-23-0.3-46.1,0-69.1-0.2c-5.9,0-7.8,2.7-7.8,8.3c0.2,16.5,0.2,33.1,0,49.6c-0.1,6.4,2.2,9.1,8.7,9
	c22-0.2,44.1,0.1,66.1-0.2c24.9-0.3,43.6-18.8,43.4-42.3c-0.2-23.7-19-42.1-43.7-42.2c-27.6-0.2-55.1,0.1-82.7-0.1
	c-7.1-0.1-9.8,2.6-9.7,9.7C111.4,118.9,111.2,144.7,111.2,170.5z"/>
<g>
	<path class="st0" d="M175.7,14.1c85.9,0,156.2,66.7,161.6,150.9h14c-1.2-20-5.7-39.3-13.5-57.8c-8.9-20.9-21.6-39.7-37.7-55.8
		c-16.2-16.1-35-28.8-55.9-37.6C222.5,4.6,199.5,0,175.7,0s-46.8,4.6-68.5,13.8c-21,8.8-39.8,21.5-55.9,37.6
		c-16.2,16.1-28.9,34.9-37.7,55.8C5.8,125.6,1.3,145,0.1,165h14C19.5,80.7,89.8,14.1,175.7,14.1z"/>
	<path class="st0" d="M175.7,337.1c-86,0-156.4-66.9-161.7-151.3H0c1.1,20.1,5.7,39.6,13.5,58.2c8.9,20.9,21.6,39.7,37.7,55.8
		c16.2,16.1,35,28.8,55.9,37.6c21.7,9.2,44.7,13.8,68.5,13.8s46.8-4.6,68.5-13.8c21-8.8,39.8-21.5,55.9-37.6
		c16.2-16.1,28.9-34.9,37.7-55.8c7.9-18.5,12.4-38.1,13.5-58.2h-14C332.1,270.2,261.7,337.1,175.7,337.1z"/>
</g>
</svg>
