<?xml version="1.0" encoding="utf-8"?>
<!-- Generator: Adobe Illustrator 25.4.1, SVG Export Plug-In . SVG Version: 6.00 Build 0)  -->
<svg version="1.1" id="Layer_1" xmlns="http://www.w3.org/2000/svg" xmlns:xlink="http://www.w3.org/1999/xlink" x="0px" y="0px"
	 viewBox="0 0 1017.7 475" style="enable-background:new 0 0 1017.7 475;" xml:space="preserve">
<style type="text/css">
	.st0{fill:#FFFFFF;}
</style>
<g>
	<g>
		<path class="st0" d="M404.3,208.9c-1.4-15.4-6.5-28.5-21.9-34.2c-14.6-5.4-26,2.3-36.8,10.4c8.6,5.2,17.3,9.7,25.2,15.4
			c5.4,3.9,10.4,9,14.3,14.5c12.5,17.5,6.8,38.3-13.3,49.9c-10.7,6.1-22.5,9.1-34.5,11.2c-3.3,0.6-6.6,1-11.5,1.7
			c2.7,1.1,4.1,1.5,5.4,2.2c8.2,4.7,17.3,8.3,24.3,14.4c21.8,19.2,21.5,51,0.1,71.7c-17.7,17-39.2,26.1-63.3,29.1
			c-27.4,3.3-53.3-2.2-77.9-14.6c-2.5-1.2-4.1-1.6-6.6,0.4c-26.9,22.5-57.1,38.3-91.4,46.3c-0.6,0.1-1.1,0.5-1.8,0.8
			c2.2,5.5,5.1,8.4,11.8,8.3c34.2-0.4,68.3-0.3,102.5-0.1c6,0,11.7-0.5,16.8-3.7c4.7-3,8.5-2.3,12.2,1.7c1.6,1.7,3.5,2.9,6,4.9
			c-5.3,2.6-7.6,8.7-14.3,8.4c-0.7,0-1.6,1.1-2.3,1.8c-25.5,26.4-67.5,33-103.3,17.1c-11.7-5.2-22.1-12.3-31.1-21.4
			c-2.3-2.3-4.7-3.2-7.9-3.2c-19.2,0.1-38.3-0.2-57.5,0.3c-5.2,0.1-10.6,2.4-15.6,4.3c-3.1,1.2-5.6,1.7-7.9-1
			c-3.5-3.9-7.3-4.5-11.8-1.6c-5.9,3.8-8.3-2.2-12.2-4.4c5.6-7.1,7.2-7.8,14.5-4.3c3.4,1.6,5.7,1,7.9-1.4c3.3-3.6,6.7-4.1,10.9-1.5
			c5.5,3.4,11.7,4.1,18.2,3.9c15.5-0.3,31-0.1,46.5-0.1c1.8,0,3.6,0,5.5,0c-1.3-6-5.2-5.3-9.3-4.8c-18.7,2.5-37.2,2-55.2-4.4
			c-12.2-4.3-22.6-11.3-30.9-21.3c-1.9-2.3-3.6-4.9-4.6-7.6c-2.7-7.4,0.5-13.2,8.6-15.9c1,2.9,2,5.8,3.2,8.7
			c8.7,20.9,25.2,31.6,46.9,35.1c11.4,1.9,22.8,1.7,34.6-0.3c-0.8-1.5-1.5-2.6-2-3.8c-4.9-11.3-9.9-22.5-14.5-33.9
			c-1-2.4-1.6-3.7-4.5-4.1c-30-4-48.5-23.9-50.9-54.3c-2.5-31.9,8.4-59.7,26.2-85.1c25-35.6,60.2-56.8,101.2-69.1
			c39.8-12,80.3-12.9,121.2-7.7c20,2.6,39.6,7.3,58.8,13.5c2,0.6,4.9,0,6.8-1c13.5-7.3,27.4-12.1,43-10.1c13,1.7,23.4,7.7,30.2,19
			C417.7,198,414.7,205.6,404.3,208.9z M111.2,422.8c20.4-4.3,38.8-12.6,55.7-24.1c23.5-16,41.1-37.5,55.7-61.3
			c17-27.7,33-56,49.7-83.8c13.2-22.1,27.5-43.3,47.5-60.1c2.9-2.4,5.8-4.7,8.8-7.1c-0.6-0.5-0.8-0.8-1.1-0.9
			c-0.8-0.3-1.6-0.5-2.4-0.8c-36.9-11.9-74.8-16.3-113.4-12.8c-55,4.9-100,29.1-133.3,73.1c-21.1,27.9-31.8,59.5-27.5,94.9
			c1.4,11.9,5.7,22.6,15.6,30.2c2.7,2.1,6,3.5,9.8,5.7c-0.6-5.8-1.2-10.3-1.5-14.7c-0.3-4.5-0.9-9-0.5-13.5
			c4.4-53.8,27.7-97,72.6-127.7c11.2-7.7,23.6-13,37.3-14.7c18.9-2.4,34.2,7.6,38.1,25.8c1.4,6.6,1.7,13.6,0.9,20.3
			c-2.9,25.5-13.9,47.8-28.5,68.4c-20.2,28.5-45.8,50.1-80.2,59.5c-5.3,1.4-10.6,2.6-16.1,4C100.3,397.5,104.5,410.4,111.2,422.8z
			 M96.2,377.4c3.7-0.3,5.8-0.3,7.9-0.7c16.2-3.2,31.3-9,45-18.3c30.4-20.5,49.8-49.4,62.9-83c4.6-11.9,7.1-24.2,6.1-37.1
			c-1.6-19.2-14.8-28.2-33-22.3c-11.5,3.8-20.9,10.9-29.6,19c-31.5,29.1-50.1,65.2-57,107.2C96.5,353.5,96.9,365.3,96.2,377.4z
			 M214.8,374.8c27.1,13.2,54.3,18.3,82.9,9.1c20.4-6.5,35.2-19.9,43.8-39.6c12.1-27.8-0.3-54.2-29.4-62.2c-7.1-2-14.7-2.2-22.1-3.3
			c-3.4-0.5-5.3,0.8-7.1,3.9c-8.2,14.4-16.4,29-25.4,43C245.8,343.8,231.4,359.7,214.8,374.8z M289.9,272c7.7,0,15.3,0.5,22.7-0.1
			c14.6-1.2,28.6-4.9,40.7-13.6c10.1-7.2,16.6-17,17.5-29.5c1-15-7.1-25.4-19.2-32.6c-14-8.3-9.9-7.8-19.8,2.8
			c-1.6,1.7-3.1,3.5-4.3,5.5c-12.6,21.9-25.1,43.9-37.6,65.9C289.7,270.6,289.9,271,289.9,272z M246.6,445.1
			c-4.8-1.2-9-3.1-13.2-3.1c-34.5-0.2-69-0.1-103.5-0.1c-1.4,0-2.8,0.2-4.5,0.3C157.7,479.5,218.1,477.6,246.6,445.1z"/>
		<path class="st0" d="M550.9,210.3c-51,0-92.9-41.6-92.9-92.3c0-52.1,41.4-93.9,92.9-93.9c51.8,0,93.4,41.7,93.3,93.4
			C644.1,169.1,602.7,210.3,550.9,210.3z M508.2,114.1c0,17.5,0,35,0,52.5c0,3.4,0.7,5.9,4.9,5.9c19.7-0.1,39.3,0.3,59-0.2
			c15.2-0.4,26.8-13.2,26.6-28.2c-0.2-15.2-12.4-27.5-27.8-27.8c-15-0.2-30,0-45-0.1c-4.3,0-5.9,1.7-5.8,6c0.2,10.8,0.2,21.7,0,32.5
			c-0.1,4.6,1.7,6.2,6.2,6.2c14.3-0.2,28.7,0,43-0.1c2,0,4-0.2,5.9-0.8c6.7-2.1,10.6-6.8,11.5-13.7c0.8-6.5-1.7-11.8-7.2-15.4
			c-2.6-1.7-5.6-3.5-7.9-0.2c-2.4,3.4,0.2,5.3,3.1,7c3.4,2,4.5,5.4,3.4,9.1c-1,3.6-3.6,5.5-7.4,5.5c-12.5,0-25,0-37.5,0.1
			c-3.1,0-4.6-1.3-4.6-4.5c0-6.3,0-12.7,0-19c0-2.9,1.5-4.3,4.4-4.3c13.2,0,26.3-0.3,39.5,0.2c10.7,0.5,18.1,9.5,17.8,20.3
			c-0.3,10.5-8.6,18.9-19.3,19c-16.3,0.2-32.7,0-49,0.1c-4,0-5.2-1.6-5.2-5.4c0.1-29.5,0.1-59,0-88.5c0-4,1.4-5.8,5.5-5.7
			c7,0.2,14,0,21,0c9.5,0,19-0.2,28.5,0.1c10.7,0.4,18.6,9.1,18.6,19.7c0,10.3-8.1,19.3-18.2,19.6c-13,0.3-26,0.1-39,0.1
			c-3.1,0-4.6-1.3-4.6-4.5c0-6.2,0.1-12.3,0-18.5c0-3.4,1.6-4.9,4.9-4.9c12.3,0,24.7,0,37,0.1c3.8,0,6.8,1.9,7.7,5.8
			c0.9,4-0.3,7.4-4.1,9.3c-2.8,1.4-4.5,3.3-2.8,6.3c1.9,3.3,4.7,2.3,7.4,0.8c6.2-3.6,9.4-10.9,7.7-18c-1.7-7-7.7-12.4-15-12.5
			c-15.3-0.2-30.7,0-46-0.1c-3.9,0-5.2,1.8-5.2,5.6c0.1,11,0.2,22,0,33c-0.1,4.3,1.5,6,5.8,6c14.7-0.1,29.3,0.1,44-0.1
			c16.6-0.2,29-12.5,28.9-28.2c-0.2-15.8-12.7-28-29.1-28.1c-18.3-0.1-36.7,0.1-55-0.1c-4.7,0-6.5,1.7-6.4,6.5
			C508.3,79.7,508.2,96.9,508.2,114.1z"/>
		<path class="st0" d="M443.7,110.4c-2.9,0-5.5,0-8.9,0c3.2-37.9,19.4-68.4,50.9-89.2C526.7-5.9,569.8-7,612,18.1
			c34.3,20.4,52.1,52,55.7,92.2c-3.6,0-6.3,0-9,0C654,50.9,604.5,9.6,550.7,9.8C499.6,10,449.3,48.4,443.7,110.4z"/>
		<path class="st0" d="M435.2,124.2c3,0,5.6,0,8.6,0c3.1,32.6,17.1,59.3,43.2,79.1c19.5,14.8,41.8,21.7,66.3,21.3
			c53.1-0.8,101-42.2,105.4-100.3c2.7,0,5.4,0,8.2,0c0.3,44.7-39,106.9-112,109.4C485.1,235.9,437,179.6,435.2,124.2z"/>
		<path class="st0" d="M743.1,90.6c0,3.1-0.4,6.5,0.1,9.7c1.8,13.4,11.7,21.1,24.8,17.9c8.2-2,16.2-5.9,23.6-10.1
			c11.3-6.4,21.8-14,32.8-21c7.8-4.9,16.2-8.5,25.7-8.4c20.6,0.3,33.7,23.4,23.5,41.2c-4.7,8.1-13.6,10.4-20.3,5.1
			c-5.1-4-6.5-10.6-3.5-16.1s9.2-8,15.3-6c1.1,0.3,2.2,0.8,3.3,1.2c0.4-8.8-8.3-16.8-18-15.3c-5.9,0.9-12,3-17.1,6.1
			c-7.7,4.6-14.4,10.8-21.8,15.9c-8.9,6.1-17.7,12.4-27.2,17.5c-7.6,4.1-16.2,4.8-24.8,2.9C739.9,126.9,732,107.4,743.1,90.6z"/>
		<path class="st0" d="M356.1,91.6c11.1,14.5,2.8,35.1-15.5,39.4c-12.8,3-24.6-0.4-35.2-7.2c-8.2-5.3-15.7-11.7-23.6-17.5
			c-6-4.4-12-9.1-18.4-12.7c-4.4-2.5-9.5-4.1-14.5-4.7c-9.6-1.3-17.2,5.3-18.6,14.9c3.3-0.4,6.7-1.5,9.9-1.2
			c5.7,0.6,9.9,5.4,10.7,11c0.8,5.2-2.6,11.1-7.7,13.4s-11,1.1-15-3.5c-6.3-7.3-7.2-16-4.6-24.9c4.2-14.6,18-22.7,33.2-18.8
			c7,1.8,13.7,5.1,19.9,8.8c11.7,6.9,22.8,15,34.6,21.9c5.9,3.5,12.6,6.3,19.2,7.8c15.3,3.4,25.8-5.9,25.7-21.5
			C356.1,95.1,356.1,93.5,356.1,91.6z"/>
		<path class="st0" d="M334.7,82.4c4.4,1.3,7.6,3.4,7.2,8c-0.3,3.9-2.9,6.3-6.8,6.9c-4.7,0.6-8.1-1.5-10.1-5.6
			c-2.6-5.3-0.8-12.2,4.3-16.6c6.5-5.6,14.2-6.4,22.1-4.5c15.5,3.9,26.8,13.4,35.6,28.7c0-3.4-0.1-5.4,0-7.5
			c0.6-13.2,12.4-22.3,25.3-19.5c3.7,0.8,7.3,2.3,7.6,6.7c0.1,1.9-0.7,4.5-2,5.6c-1.1,0.9-4.2,0.7-5.3-0.3c-1.3-1.1-1.5-3.6-2-5.6
			c-0.1-0.7,0.5-1.5,0.8-2.3c-8.1,0.1-14.6,7.2-14.9,16.2c-0.5,13.4,9.5,22.1,28.3,23.8c-12.6,6.9-24.5,8.4-37,3.2
			c-9.5-4-15.9-11.2-20.7-20.2c-2.7-5.1-5.6-10.2-8.9-15c-3.2-4.7-8.1-7.4-13.8-8.2C339.9,75.5,336.3,76.9,334.7,82.4z"/>
		<path class="st0" d="M712.8,98.2c7.2-12.7,17.1-21.6,30.6-26.4c7.5-2.7,15-3.1,22.3,0.4c6.9,3.3,10.9,10,9.3,16.5
			c-0.6,2.5-2.3,5.3-4.3,6.9c-4.1,3.4-10.1,2-12.5-2.3s-0.4-8,5.8-11c-1.1-4.9-4.2-7-9.4-6.1c-7.1,1.1-12.2,5.2-15.9,11.1
			c-2.9,4.7-5.3,9.6-8,14.4c-11.7,20.5-36.3,27.3-55.6,14.8c15.9-1.2,27.2-7.3,27.5-24.5c0.1-8.4-6.2-14.6-14.4-15.9
			c-0.1,0.3-0.4,0.6-0.3,0.8c1.8,3.3,1.6,6.6-2.1,7.9c-1.7,0.6-5.3-0.5-6.1-1.9c-2-3.5-0.3-6.8,3-8.9c9-5.7,24.4,0.2,28.1,11
			C712.1,88.9,712.1,93.4,712.8,98.2z"/>
		<path class="st0" d="M772,438.9c3.6-2.9,6.6-5.5,10-7.6c1.2-0.8,3.6-0.8,4.8-0.1c8,4.6,16.6,5,25.5,4.9
			c50.8-0.2,101.6-0.2,152.4,0c7.7,0,14.9-0.8,21.6-4.7c2.9-1.7,5.3-1.5,7.5,1c3.4,3.8,7.1,4.4,11.8,1.8c4.6-2.6,4.8-2.2,12.1,4.4
			c-4.9,6.8-7.1,7.6-14.2,4.2c-3.3-1.6-5.7-1.2-7.9,1.3c-3.4,3.8-7,4.1-11.3,1.5c-5.3-3.2-11.1-3.8-17.2-3.8
			c-54,0.2-108,0.2-161.9-0.1c-6.4,0-11.7,2-17.1,4.6c-3.1,1.5-5.4,1.6-8-0.9C777.9,443.3,775.2,441.5,772,438.9z"/>
		<path class="st0" d="M402.5,88.5c6.9,4.6,12.4,9.6,15,17.6c1,3.1,4.7,5.3,7,7.7C414.1,115.6,400.2,103.5,402.5,88.5z"/>
		<path class="st0" d="M674,113.5c5.9-3.3,8.5-8.4,10.8-14c1-2.5,3.7-4.4,5.8-6.4c1.8-1.7,3.8-3.1,5.6-4.7
			C700.1,100.6,686.6,115.5,674,113.5z"/>
	</g>
	<g>
		<path class="st0" d="M340.5,414.9v1.6c-1,0.3-2.1,1-3.3,2.1s-2.2,3-3.2,5.5l-17.7,46.3c-0.2,0-0.4,0-0.6,0s-0.4,0-0.7,0
			c-0.2,0-0.4,0-0.6,0s-0.4,0-0.6,0l-19.3-49c-0.8-1.9-1.6-3.2-2.6-3.9s-1.8-1-2.7-1.1v-1.6c1.2,0.1,2.7,0.1,4.4,0.2
			s3.4,0.1,5.1,0.1c2.1,0,4.1,0,6-0.1c1.9-0.1,3.4-0.1,4.6-0.2v1.6c-2.6,0.1-4.3,0.5-5,1.3s-0.6,2.5,0.4,5.2l14.4,37.7l-1.4,1.6
			l12.6-33.2c1.2-3.2,1.8-5.7,1.8-7.4s-0.6-3.1-1.7-3.9c-1.1-0.8-2.8-1.2-5-1.2v-1.6c1.6,0.1,3.2,0.1,4.8,0.2s3,0.1,4.4,0.1
			c1.3,0,2.4,0,3.4-0.1S339.7,414.9,340.5,414.9z"/>
		<path class="st0" d="M423.5,414.9v1.6c-1.7,0.1-3,0.2-3.9,0.6c-0.9,0.3-1.5,1-1.8,1.9s-0.5,2.3-0.5,4.3V462c0,1.9,0.2,3.3,0.5,4.2
			c0.3,0.9,0.9,1.6,1.8,1.9c0.9,0.3,2.2,0.5,3.9,0.6v1.6c-1.2-0.1-2.8-0.2-4.7-0.2c-1.9,0-3.8,0-5.8,0c-2.2,0-4.2,0-6.1,0
			c-1.9,0-3.4,0.1-4.6,0.2v-1.6c1.8-0.1,3.1-0.3,4-0.6c0.9-0.3,1.5-0.9,1.8-1.9c0.3-0.9,0.4-2.3,0.4-4.2v-38.7
			c0-1.9-0.1-3.3-0.4-4.3c-0.3-0.9-0.9-1.5-1.8-1.9c-0.9-0.3-2.2-0.5-3.9-0.6v-1.6c1.2,0.1,2.7,0.1,4.6,0.2c1.9,0.1,3.9,0.1,6.1,0.1
			c2,0,3.9,0,5.8-0.1C420.7,415,422.3,414.9,423.5,414.9z"/>
		<path class="st0" d="M488.9,414.9c1.2,0.1,2.7,0.1,4.6,0.2c1.9,0.1,3.8,0.1,5.7,0.1c2.5,0,4.9,0,7.1-0.1c2.3-0.1,3.9-0.1,4.8-0.1
			c6.6,0,11.5,1.3,14.8,3.8s4.9,5.8,4.9,9.8c0,1.6-0.3,3.3-1,5.1c-0.7,1.8-1.8,3.5-3.4,5c-1.6,1.5-3.8,2.8-6.6,3.8
			s-6.3,1.5-10.5,1.5h-7.5v-1.6h6.7c3.5,0,6.1-0.6,8-1.8c1.8-1.2,3.1-2.7,3.7-4.7c0.6-1.9,1-4.1,1-6.5c0-4.1-0.9-7.3-2.7-9.6
			c-1.8-2.3-4.8-3.4-9.2-3.4c-2.2,0-3.7,0.4-4.4,1.3s-1.1,2.7-1.1,5.4v38.7c0,1.9,0.2,3.3,0.5,4.2c0.3,0.9,0.9,1.6,1.8,1.9
			c0.9,0.3,2.2,0.5,3.9,0.6v1.6c-1.2-0.1-2.8-0.2-4.7-0.2s-3.8,0-5.8,0c-2.2,0-4.2,0-6.1,0c-1.9,0-3.4,0.1-4.6,0.2v-1.6
			c1.8-0.1,3.1-0.3,4-0.6c0.9-0.3,1.5-0.9,1.8-1.9c0.3-0.9,0.4-2.3,0.4-4.2v-38.7c0-1.9-0.1-3.3-0.4-4.3c-0.3-0.9-0.9-1.5-1.8-1.9
			c-0.9-0.3-2.2-0.5-3.9-0.6V414.9L488.9,414.9z M502.1,442.5c2.7,0.1,4.8,0.2,6.4,0.4c1.6,0.1,3,0.2,4.1,0.4c1.1,0.1,2.1,0.2,3,0.4
			c3.9,0.5,6.7,1.6,8.5,3.1c1.8,1.6,3,4,3.7,7.2l2,8c0.5,2.2,1,3.8,1.5,4.8c0.5,0.9,1.4,1.4,2.5,1.4c0.8-0.1,1.5-0.3,2.1-0.7
			c0.5-0.4,1.1-1.1,1.8-1.8l1.1,0.9c-1.2,1.6-2.4,2.8-3.7,3.6c-1.3,0.8-3,1.2-5.2,1.2s-4.1-0.6-5.7-1.8c-1.6-1.2-2.7-3.4-3.4-6.7
			l-1.6-7.8c-0.5-2.2-1-4.2-1.6-5.8c-0.6-1.6-1.4-2.9-2.4-3.9c-1-0.9-2.5-1.4-4.4-1.4h-8.4L502.1,442.5z"/>
		<path class="st0" d="M617.5,413.9c2.8,0,4.9,0.3,6.3,0.9c1.5,0.6,2.7,1.3,3.8,2c0.6,0.4,1.1,0.6,1.5,0.8c0.4,0.2,0.8,0.3,1.1,0.3
			c0.8,0,1.4-1.1,1.7-3.4h1.8c-0.1,0.9-0.1,2-0.2,3.3c-0.1,1.3-0.1,3-0.2,5c0,2.1,0,4.8,0,8.2h-1.8c-0.2-2.5-0.7-5-1.7-7.4
			s-2.4-4.3-4.2-5.8s-4.2-2.3-7.1-2.3c-2.7,0-4.8,0.8-6.6,2.4c-1.7,1.6-2.6,3.7-2.6,6.3c0,2.3,0.6,4.2,1.7,5.7
			c1.1,1.5,2.7,3,4.7,4.3s4.3,2.8,6.8,4.4c2.6,1.7,4.9,3.3,7,5c2.1,1.6,3.7,3.4,4.9,5.4s1.8,4.4,1.8,7.2c0,3.4-0.8,6.2-2.4,8.4
			c-1.6,2.2-3.7,3.9-6.4,5s-5.6,1.6-8.7,1.6c-2.9,0-5.2-0.3-6.9-0.9s-3.2-1.3-4.4-2c-1.1-0.7-2-1.1-2.7-1.1c-0.8,0-1.4,1.1-1.7,3.4
			h-1.8c0.1-1.1,0.2-2.5,0.2-4s0.1-3.5,0.1-6s0-5.6,0-9.4h1.8c0.2,3.2,0.8,6.2,1.8,9s2.4,5.1,4.4,6.7c2,1.7,4.7,2.5,8,2.5
			c2.6,0,4.9-0.8,6.9-2.4s3-4.1,3-7.4c0-3.2-1.1-5.8-3.3-7.9s-5.1-4.3-8.7-6.4c-2.4-1.6-4.7-3.1-6.9-4.7c-2.1-1.6-3.8-3.4-5.1-5.5
			s-1.9-4.5-1.9-7.4c0-3.2,0.7-5.8,2.2-7.8s3.4-3.5,5.8-4.5C612.3,414.4,614.8,413.9,617.5,413.9z"/>
		<path class="st0" d="M725.1,414.5l19,49c0.7,1.9,1.6,3.2,2.5,3.9c1,0.7,1.9,1,2.7,1.1v1.6c-1.2-0.1-2.7-0.2-4.4-0.2s-3.4,0-5.1,0
			c-2.2,0-4.2,0-6.1,0s-3.4,0.1-4.5,0.2v-1.6c2.7-0.1,4.3-0.6,5-1.4s0.5-2.5-0.5-5.2l-14-37.9l1.2-1.4L708,456.5
			c-1.2,3.1-1.8,5.5-1.8,7.3c0.1,1.7,0.7,2.9,1.8,3.6s2.8,1.1,5,1.1v1.6c-1.6-0.1-3.1-0.2-4.7-0.2s-3.1,0-4.5,0c-1.2,0-2.4,0-3.3,0
			c-1,0-1.8,0.1-2.6,0.2v-1.6c1.1-0.3,2.2-0.9,3.3-2c1.1-1,2.1-2.8,3.1-5.3l18.1-46.7c0.4,0,0.9,0,1.3,0S724.7,414.5,725.1,414.5z
			 M733.3,447.6v1.6h-23.2l0.8-1.6H733.3z"/>
	</g>
	<g>
		<path class="st0" d="M485.2,279.4c-12.5,0-23.5,8-30.5,17c-0.5-9.5-8-17-17.5-17c-11.8,0-24.6,9.7-35,22.4
			c-0.2,0.2-34.6,38-34.7,38.2l1.6,2.1c0.2-0.2,37.5-35.6,37.7-35.8c7.4-7.9,16.1-16.9,21.4-16.9c2,0,3,1.5,3,3.5s-0.5,3.5-1.5,6
			l-32.5,85.5h28l22.5-58.5c7.5-20,20.5-40,37-40c2,0,3,0,5,0.5c-11.5,2.5-19.5,9.5-19.5,20.5c0,9.5,5.5,16,16.5,16
			c14,0,21-10,21-22S498.2,279.4,485.2,279.4z"/>
		<path class="st0" d="M589.7,279.4c-33,0-68.5,36-68.5,75.5c0,21,13.5,33,32,33c38,0,70-47,70-75.5
			C623.2,289.9,610.2,279.4,589.7,279.4z M577.2,373.9c-6,4.5-11.5,7-17.5,7c-6.5,0-10.5-4.5-10.5-12.5c0-16.5,13-51,22.5-71
			c3.5-7.5,11-11.5,19-11.5c12,0,17.5,5.5,17.5,18C608.2,328.9,593.2,361.4,577.2,373.9z"/>
		<path class="st0" d="M796.7,278.9c-9.5,0-16.5,9.5-16.5,19.5c0,11.5,5.5,17,13.5,17c7,0,11-3.5,15.5-8.5
			c0,35.5-33.5,74.5-63.5,74.5c-7.5,0-11-3-11-7.5c0-3,1-5,2-8l31.5-83h-28l-20,53c-2.5,6.5-5,10.5-8,14.5c-11,15-28.5,29-43.5,29
			c-4,0-5.5-2.5-5.5-5.5c0-2,0.5-3,1.5-5l32.5-86h-28l-25.5,67c-3,7.5-5,12-5,20c0,11,8.5,18,21,18c21,0,34-11,49.5-24
			c0,16.5,10,24.5,27.5,24.5c25,0,44-12,58-27.5c15-16.5,22-37,22-56.5C816.7,286.4,809.2,278.9,796.7,278.9z"/>
		<path class="st0" d="M995.8,333.9c-7.8,12.3-18.6,22.8-29.9,32c-0.1,0-0.1,0.1-0.2,0.1c-4.8,3.8-9.4,7.3-14.5,9.9
			c-0.9,0.3-1.7,0.4-2.4,0.4c-2,0-3-2.5-3-4.5c0-1.5,0.5-4,1.5-6l12.6-31.3l8.4-20.7c2-5,3-8,3-13c0-3.1-0.6-5.8-1.7-8.2
			c-4-8.7-14.1-13.3-24.3-13.3c-16,0-32.5,13-45.5,23.5c0.5-1.5,0.5-2.5,0.5-4c0-1-0.1-2-0.2-3c-0.1-0.9-0.2-1.7-0.4-2.5
			c-2.1-9-9.2-13.9-18.9-13.9c-16,0-23.5,9.8-34.4,21.8c-0.4,0.4-47.1,50.2-47.5,50.6l-2.6,4.7c0.4-0.4,54.2-50.4,54.6-50.8
			c7.8-8.2,16.6-16.9,20.4-16.9c2,0,3.5,1.5,3.5,4.5c0,2-0.5,3.5-1.5,5.5l-6.3,16.4l-25.6,67.2l-0.7,2h2.4h18h7.6l2.9-7.6l1.8-4.7
			l14.3-37.7c10-27,35.5-46.5,53-46.5c5,0,5.5,4,5.5,6c0,0.1,0,0.2,0,0.3c-0.1,3.3-1.5,5.3-2.5,8.2l-2.5,5.9l-14,33.1l-2,4.7
			l-3.1,7.3c-2.5,6-3,10-3,16.5c0,4.2,1,7.6,2.8,10.3c2.3,3.5,5.8,5.7,10.1,6.9c2,0.5,4.2,0.8,6.6,0.8c13.5,0,23.5-10,33-19
			l-0.1-0.1c11-9.9,19.6-22.2,27.5-35.4c0.5-0.8,0.5-2,0.7-3C997.8,331.1,996.7,332.5,995.8,333.9z"/>
	</g>
</g>
</svg>
